<?xml version="1.0" encoding="UTF-8"?>
<!DOCTYPE svg PUBLIC "-//W3C//DTD SVG 1.1//EN" "http://www.w3.org/Graphics/SVG/1.1/DTD/svg11.dtd">
<svg xmlns="http://www.w3.org/2000/svg" version="1.1" width="217px" height="232px" style="shape-rendering:geometricPrecision; text-rendering:geometricPrecision; image-rendering:optimizeQuality; fill-rule:evenodd; clip-rule:evenodd" xmlns:xlink="http://www.w3.org/1999/xlink">
<g><path style="opacity:1" fill="#fdfcfd" d="M -0.5,-0.5 C 32.1667,-0.5 64.8333,-0.5 97.5,-0.5C 95.6976,0.458201 93.6976,1.12487 91.5,1.5C 88.9902,1.92668 86.6568,2.59334 84.5,3.5C 81.4221,3.61975 78.7554,4.61975 76.5,6.5C 74.7162,6.89254 73.0495,7.5592 71.5,8.5C 61.7793,13.023 53.1127,19.023 45.5,26.5C 43.5956,26.7376 42.2623,27.7376 41.5,29.5C 37.7858,29.5902 34.4525,30.5902 31.5,32.5C 28.911,32.461 26.911,33.461 25.5,35.5C 23.9731,35.427 22.9731,36.0937 22.5,37.5C 20.2512,38.0798 18.5846,39.4131 17.5,41.5C 16.5,41.8333 15.8333,42.5 15.5,43.5C 12.4977,46.1612 10.4977,49.4945 9.5,53.5C 5.81185,59.9043 3.81185,66.9043 3.5,74.5C 3.25992,86.5518 3.92658,98.5518 5.5,110.5C 5.43998,112.921 5.10665,115.254 4.5,117.5C 2.0095,118.108 0.676168,119.775 0.5,122.5C 0.56132,124.653 1.56132,125.986 3.5,126.5C 5.12946,139.764 6.12946,153.098 6.5,166.5C 6.12821,172.43 6.79487,178.097 8.5,183.5C 8.40953,186.152 9.07619,188.485 10.5,190.5C 12.2309,196.778 14.5642,202.778 17.5,208.5C 17.427,210.027 18.0937,211.027 19.5,211.5C 21.664,213.822 23.3307,216.489 24.5,219.5C 24.3259,221.861 23.9926,224.194 23.5,226.5C 22.6091,227.261 21.9424,228.261 21.5,229.5C 21.9569,230.298 22.6236,230.631 23.5,230.5C 23.5,230.833 23.5,231.167 23.5,231.5C 15.5,231.5 7.5,231.5 -0.5,231.5C -0.5,154.167 -0.5,76.8333 -0.5,-0.5 Z"/></g>
<g><path style="opacity:1" fill="#f9f9f9" d="M 116.5,-0.5 C 149.833,-0.5 183.167,-0.5 216.5,-0.5C 216.5,36.5 216.5,73.5 216.5,110.5C 216.167,110.5 215.833,110.5 215.5,110.5C 215.736,102.458 215.403,94.4583 214.5,86.5C 214.59,83.8478 213.924,81.5145 212.5,79.5C 208.431,64.0204 200.764,50.6871 189.5,39.5C 187.833,35.8333 185.167,33.1667 181.5,31.5C 166.879,18.3457 149.879,9.01232 130.5,3.5C 128.485,2.07619 126.152,1.40953 123.5,1.5C 121.048,0.934566 118.715,0.2679 116.5,-0.5 Z"/></g>
<g><path style="opacity:1" fill="#5b7633" d="M 97.5,-0.5 C 103.833,-0.5 110.167,-0.5 116.5,-0.5C 118.715,0.2679 121.048,0.934566 123.5,1.5C 123.5,1.83333 123.5,2.16667 123.5,2.5C 122.761,2.36899 122.094,2.53566 121.5,3C 126.883,5.01657 131.55,8.01657 135.5,12C 129.142,9.93625 122.809,7.76958 116.5,5.5C 114.123,4.11274 111.457,3.27941 108.5,3C 102.652,2.82716 96.9851,2.32716 91.5,1.5C 93.6976,1.12487 95.6976,0.458201 97.5,-0.5 Z"/></g>
<g><path style="opacity:1" fill="#171d0d" d="M 91.5,1.5 C 96.9851,2.32716 102.652,2.82716 108.5,3C 111.457,3.27941 114.123,4.11274 116.5,5.5C 105.921,3.76429 95.2544,3.09762 84.5,3.5C 86.6568,2.59334 88.9902,1.92668 91.5,1.5 Z"/></g>
<g><path style="opacity:1" fill="#4b4f44" d="M 123.5,2.5 C 123.5,2.16667 123.5,1.83333 123.5,1.5C 126.152,1.40953 128.485,2.07619 130.5,3.5C 128.139,3.32588 125.806,2.99255 123.5,2.5 Z"/></g>
<g><path style="opacity:1" fill="#8cbd44" d="M 123.5,2.5 C 125.806,2.99255 128.139,3.32588 130.5,3.5C 149.879,9.01232 166.879,18.3457 181.5,31.5C 183.833,34.5 186.5,37.1667 189.5,39.5C 200.764,50.6871 208.431,64.0204 212.5,79.5C 212.41,82.1522 213.076,84.4855 214.5,86.5C 215.403,94.4583 215.736,102.458 215.5,110.5C 212.714,92.5254 203.881,78.192 189,67.5C 188.833,67.8333 188.667,68.1667 188.5,68.5C 201.784,85.7308 210.117,105.064 213.5,126.5C 212.968,135.326 211.468,143.993 209,152.5C 206.734,156.042 204.234,159.375 201.5,162.5C 200.833,156.833 200.167,151.167 199.5,145.5C 198.574,140.462 196.907,135.795 194.5,131.5C 194.573,129.973 193.906,128.973 192.5,128.5C 191.191,125.222 189.358,122.222 187,119.5C 182.57,116.522 179.07,112.855 176.5,108.5C 176.628,106.345 176.128,104.345 175,102.5C 153.258,74.0877 130.758,46.2543 107.5,19C 101.946,14.5898 95.6126,11.9232 88.5,11C 82.5,10.6667 76.5,10.3333 70.5,10C 71.056,9.61742 71.3893,9.11742 71.5,8.5C 73.0495,7.5592 74.7162,6.89254 76.5,6.5C 79.5779,6.38025 82.2446,5.38025 84.5,3.5C 95.2544,3.09762 105.921,3.76429 116.5,5.5C 122.809,7.76958 129.142,9.93625 135.5,12C 131.55,8.01657 126.883,5.01657 121.5,3C 122.094,2.53566 122.761,2.36899 123.5,2.5 Z"/></g>
<g><path style="opacity:1" fill="#43552b" d="M 84.5,3.5 C 82.2446,5.38025 79.5779,6.38025 76.5,6.5C 78.7554,4.61975 81.4221,3.61975 84.5,3.5 Z"/></g>
<g><path style="opacity:1" fill="#5e7e2f" d="M 71.5,8.5 C 71.3893,9.11742 71.056,9.61742 70.5,10C 76.5,10.3333 82.5,10.6667 88.5,11C 95.6126,11.9232 101.946,14.5898 107.5,19C 130.758,46.2543 153.258,74.0877 175,102.5C 176.128,104.345 176.628,106.345 176.5,108.5C 163.905,98.0768 151.739,87.0768 140,75.5C 127.658,58.4826 113.824,42.6493 98.5,28C 92.6639,23.5023 86.3306,19.8357 79.5,17C 75.4589,16.1735 71.4589,16.3401 67.5,17.5C 61.9803,19.3603 57.647,22.6936 54.5,27.5C 51.2869,27.81 48.2869,27.4767 45.5,26.5C 53.1127,19.023 61.7793,13.023 71.5,8.5 Z"/></g>
<g><path style="opacity:1" fill="#fdfdfd" d="M 176.5,108.5 C 179.07,112.855 182.57,116.522 187,119.5C 189.358,122.222 191.191,125.222 192.5,128.5C 192.427,130.027 193.094,131.027 194.5,131.5C 196.907,135.795 198.574,140.462 199.5,145.5C 199.768,151.382 199.434,157.215 198.5,163C 199.632,164.791 200.632,164.625 201.5,162.5C 204.234,159.375 206.734,156.042 209,152.5C 211.468,143.993 212.968,135.326 213.5,126.5C 215.178,121.432 215.844,116.098 215.5,110.5C 215.833,110.5 216.167,110.5 216.5,110.5C 216.5,150.833 216.5,191.167 216.5,231.5C 154.833,231.5 93.1667,231.5 31.5,231.5C 33.2608,230.687 34.9275,229.687 36.5,228.5C 45.135,224.197 51.8016,217.864 56.5,209.5C 58.0418,208.699 59.7085,208.366 61.5,208.5C 61.8417,209.338 62.5084,209.672 63.5,209.5C 64.7777,209.782 65.7777,210.449 66.5,211.5C 66.9925,213.819 67.9925,215.819 69.5,217.5C 69.6567,218.873 69.49,220.207 69,221.5C 65.985,223.516 65.8184,225.683 68.5,228C 74.7326,228.72 80.7326,228.22 86.5,226.5C 90.7128,225.292 93.7128,222.625 95.5,218.5C 97.6698,217.162 99.3365,215.328 100.5,213C 103.817,212.502 107.15,212.335 110.5,212.5C 111.443,215.109 113.11,217.109 115.5,218.5C 118.317,223.482 122.317,227.316 127.5,230C 132.093,230.702 135.759,229.202 138.5,225.5C 141.973,223.363 144.306,220.363 145.5,216.5C 146.338,216.158 146.672,215.492 146.5,214.5C 150.711,204.931 151.545,194.931 149,184.5C 148.61,181.896 147.776,179.562 146.5,177.5C 146.5,177.167 146.5,176.833 146.5,176.5C 147.245,170.349 147.912,164.182 148.5,158C 148.497,155.31 148.164,152.81 147.5,150.5C 147.5,150.167 147.5,149.833 147.5,149.5C 147.586,148.504 147.252,147.671 146.5,147C 140.91,145.63 135.243,144.63 129.5,144C 128.295,142.624 126.962,141.458 125.5,140.5C 126.932,134.033 128.265,127.533 129.5,121C 129.486,119.615 129.152,118.449 128.5,117.5C 125.381,116.704 122.715,117.704 120.5,120.5C 118.213,120.724 116.047,121.391 114,122.5C 113.098,122.257 112.265,121.923 111.5,121.5C 111.34,119.847 110.674,118.514 109.5,117.5C 108.453,114.404 107.12,111.404 105.5,108.5C 105.863,107.817 106.196,107.15 106.5,106.5C 107.167,105.167 108.167,104.167 109.5,103.5C 110.124,103.083 110.457,102.416 110.5,101.5C 110.253,100.287 109.586,99.62 108.5,99.5C 107.167,99.1667 105.833,98.8333 104.5,98.5C 102.652,94.1464 101.985,89.4797 102.5,84.5C 102.06,77.4045 100.393,70.7378 97.5,64.5C 95.4044,57.6421 92.2377,51.3087 88,45.5C 80.951,38.2529 72.7843,32.9195 63.5,29.5C 60.6888,28.525 57.6888,27.8583 54.5,27.5C 57.647,22.6936 61.9803,19.3603 67.5,17.5C 71.4589,16.3401 75.4589,16.1735 79.5,17C 86.3306,19.8357 92.6639,23.5023 98.5,28C 113.824,42.6493 127.658,58.4826 140,75.5C 151.739,87.0768 163.905,98.0768 176.5,108.5 Z"/></g>
<g><path style="opacity:1" fill="#3f4c2d" d="M 45.5,26.5 C 48.2869,27.4767 51.2869,27.81 54.5,27.5C 57.6888,27.8583 60.6888,28.525 63.5,29.5C 56.1587,28.2984 48.8253,28.2984 41.5,29.5C 42.2623,27.7376 43.5956,26.7376 45.5,26.5 Z"/></g>
<g><path style="opacity:1" fill="#e3ecaa" d="M 63.5,29.5 C 72.7843,32.9195 80.951,38.2529 88,45.5C 92.2377,51.3087 95.4044,57.6421 97.5,64.5C 98.8303,71.1565 100.164,77.8232 101.5,84.5C 101.177,90.69 101.51,96.69 102.5,102.5C 102.263,103.791 102.596,104.791 103.5,105.5C 104.465,110.098 106.465,114.098 109.5,117.5C 110.674,118.514 111.34,119.847 111.5,121.5C 111.443,122.609 111.11,123.609 110.5,124.5C 112.205,123.465 113.872,123.465 115.5,124.5C 117.054,122.907 118.721,121.574 120.5,120.5C 121.9,121.1 122.9,122.1 123.5,123.5C 123.171,126.228 123.837,128.562 125.5,130.5C 125.384,133.86 125.051,137.193 124.5,140.5C 124.833,140.5 125.167,140.5 125.5,140.5C 126.708,144.599 129.208,146.265 133,145.5C 138.37,146.479 143.204,147.813 147.5,149.5C 147.5,149.833 147.5,150.167 147.5,150.5C 147.664,153.187 147.497,155.854 147,158.5C 143.4,154.589 139.233,152.922 134.5,153.5C 138.888,161.022 142.888,168.689 146.5,176.5C 146.5,176.833 146.5,177.167 146.5,177.5C 149.137,189.84 149.137,202.174 146.5,214.5C 146.672,215.492 146.338,216.158 145.5,216.5C 144.883,216.611 144.383,216.944 144,217.5C 144.351,209.996 142.685,202.996 139,196.5C 135.205,191.902 130.372,190.069 124.5,191C 119.833,194.333 115.167,197.667 110.5,201C 79.8153,202.692 50.9819,196.192 24,181.5C 23.5072,196.857 27.6738,210.857 36.5,223.5C 35.7666,224.087 34.7666,224.087 33.5,223.5C 33.1583,222.662 32.4916,222.328 31.5,222.5C 29.3206,221.323 26.9872,220.323 24.5,219.5C 23.3307,216.489 21.664,213.822 19.5,211.5C 19.573,209.973 18.9063,208.973 17.5,208.5C 14.5642,202.778 12.2309,196.778 10.5,190.5C 10.5905,187.848 9.92381,185.515 8.5,183.5C 8.30278,176.974 7.63612,170.641 6.5,164.5C 6.99123,138.792 6.32456,113.125 4.5,87.5C 4.50255,84.6445 4.83588,81.9779 5.5,79.5C 7.83333,80.8333 10.1667,80.8333 12.5,79.5C 12.8333,79.5 13.1667,79.5 13.5,79.5C 15.4668,73.0912 16.4668,66.2579 16.5,59C 16.5693,54.9053 15.9027,51.0719 14.5,47.5C 14.8333,46.1667 15.1667,44.8333 15.5,43.5C 15.8333,42.5 16.5,41.8333 17.5,41.5C 19.7488,40.9202 21.4154,39.5869 22.5,37.5C 22.9731,36.0937 23.9731,35.427 25.5,35.5C 27.8185,35.0075 29.8185,34.0075 31.5,32.5C 34.4525,30.5902 37.7858,29.5902 41.5,29.5C 48.8253,28.2984 56.1587,28.2984 63.5,29.5 Z"/></g>
<g><path style="opacity:1" fill="#596449" d="M 181.5,31.5 C 185.167,33.1667 187.833,35.8333 189.5,39.5C 186.5,37.1667 183.833,34.5 181.5,31.5 Z"/></g>
<g><path style="opacity:1" fill="#5f614f" d="M 31.5,32.5 C 29.8185,34.0075 27.8185,35.0075 25.5,35.5C 26.911,33.461 28.911,32.461 31.5,32.5 Z"/></g>
<g><path style="opacity:1" fill="#efefef" d="M 69.5,41.5 C 65.8973,43.4353 63.8973,46.4353 63.5,50.5C 62.027,53.0169 61.3603,55.8502 61.5,59C 61.5056,61.0326 61.8389,62.866 62.5,64.5C 62.8333,67.8333 63.1667,71.1667 63.5,74.5C 63.5,75.8333 62.8333,76.5 61.5,76.5C 60.5,76.5 59.5,76.5 58.5,76.5C 57.4324,75.5655 56.099,75.2322 54.5,75.5C 54.5,69.5 54.5,63.5 54.5,57.5C 55.7682,55.0948 56.4349,52.4282 56.5,49.5C 58.0075,47.8185 59.0075,45.8185 59.5,43.5C 61.126,39.1885 64.126,37.8552 68.5,39.5C 68.8627,40.1835 69.1961,40.8501 69.5,41.5 Z"/></g>
<g><path style="opacity:1" fill="#737659" d="M 22.5,37.5 C 21.4154,39.5869 19.7488,40.9202 17.5,41.5C 18.5846,39.4131 20.2512,38.0798 22.5,37.5 Z"/></g>
<g><path style="opacity:1" fill="#981807" d="M 69.5,41.5 C 71.8881,42.2187 73.3881,43.8854 74,46.5C 75.3095,50.0704 76.1428,53.737 76.5,57.5C 75.6773,60.977 75.1773,64.6437 75,68.5C 72.2472,72.486 69.9139,72.1527 68,67.5C 65.7311,61.8887 64.2311,56.2221 63.5,50.5C 63.8973,46.4353 65.8973,43.4353 69.5,41.5 Z"/></g>
<g><path style="opacity:1" fill="#d6d7d7" d="M 69.5,47.5 C 70.4959,47.4142 71.3292,47.7476 72,48.5C 72.9284,53.0204 72.5951,57.3537 71,61.5C 70.3333,60.8333 69.6667,60.1667 69,59.5C 68.2375,55.4126 68.4042,51.4126 69.5,47.5 Z"/></g>
<g><path style="opacity:1" fill="#6b6b68" d="M 59.5,43.5 C 59.0075,45.8185 58.0075,47.8185 56.5,49.5C 56.461,46.911 57.461,44.911 59.5,43.5 Z"/></g>
<g><path style="opacity:1" fill="#6c6b69" d="M 56.5,49.5 C 56.4349,52.4282 55.7682,55.0948 54.5,57.5C 54.2938,54.5049 54.9605,51.8383 56.5,49.5 Z"/></g>
<g><path style="opacity:1" fill="#eb3459" d="M 63.5,50.5 C 64.2311,56.2221 65.7311,61.8887 68,67.5C 69.9139,72.1527 72.2472,72.486 75,68.5C 75.1773,64.6437 75.6773,60.977 76.5,57.5C 77.3439,61.0991 77.6773,64.7657 77.5,68.5C 77.7214,71.2788 77.388,73.9455 76.5,76.5C 75.1667,76.5 73.8333,76.5 72.5,76.5C 69.1445,76.9086 66.1445,76.2419 63.5,74.5C 63.1667,71.1667 62.8333,67.8333 62.5,64.5C 62.4372,59.7971 62.7705,55.1304 63.5,50.5 Z"/></g>
<g><path style="opacity:1" fill="#c9cccc" d="M 12.5,52.5 C 13.8048,54.3972 14.4714,56.7305 14.5,59.5C 14.4714,62.2695 13.8048,64.6028 12.5,66.5C 11.1667,61.8333 11.1667,57.1667 12.5,52.5 Z"/></g>
<g><path style="opacity:1" fill="#493327" d="M 14.5,47.5 C 15.9027,51.0719 16.5693,54.9053 16.5,59C 16.4668,66.2579 15.4668,73.0912 13.5,79.5C 14.388,76.9455 14.7214,74.2788 14.5,71.5C 14.6347,69.4458 13.968,67.7791 12.5,66.5C 13.8048,64.6028 14.4714,62.2695 14.5,59.5C 14.4714,56.7305 13.8048,54.3972 12.5,52.5C 13.968,51.2209 14.6347,49.5542 14.5,47.5 Z"/></g>
<g><path style="opacity:1" fill="#9d1907" d="M 15.5,43.5 C 15.1667,44.8333 14.8333,46.1667 14.5,47.5C 14.6347,49.5542 13.968,51.2209 12.5,52.5C 11.1667,57.1667 11.1667,61.8333 12.5,66.5C 13.968,67.7791 14.6347,69.4458 14.5,71.5C 13.8501,71.8039 13.1835,72.1373 12.5,72.5C 11.3037,70.8554 10.3037,69.1887 9.5,67.5C 9.5,62.8333 9.5,58.1667 9.5,53.5C 10.4977,49.4945 12.4977,46.1612 15.5,43.5 Z"/></g>
<g><path style="opacity:1" fill="#5c5251" d="M 63.5,50.5 C 62.7705,55.1304 62.4372,59.7971 62.5,64.5C 61.8389,62.866 61.5056,61.0326 61.5,59C 61.3603,55.8502 62.027,53.0169 63.5,50.5 Z"/></g>
<g><path style="opacity:1" fill="#f8f8f8" d="M 9.5,70.5 C 9.5,71.8333 9.5,73.1667 9.5,74.5C 9.5,75.8333 9.5,77.1667 9.5,78.5C 8.16667,78.5 6.83333,78.5 5.5,78.5C 4.56552,77.4324 4.23219,76.099 4.5,74.5C 5.15752,69.0729 6.32418,63.7396 8,58.5C 8.17618,62.6877 8.67618,66.6877 9.5,70.5 Z"/></g>
<g><path style="opacity:1" fill="#676667" d="M 9.5,53.5 C 9.5,58.1667 9.5,62.8333 9.5,67.5C 9.5,68.5 9.5,69.5 9.5,70.5C 8.67618,66.6877 8.17618,62.6877 8,58.5C 6.32418,63.7396 5.15752,69.0729 4.5,74.5C 4.16667,74.5 3.83333,74.5 3.5,74.5C 3.81185,66.9043 5.81185,59.9043 9.5,53.5 Z"/></g>
<g><path style="opacity:1" fill="#4c4a4a" d="M 54.5,57.5 C 54.5,63.5 54.5,69.5 54.5,75.5C 56.099,75.2322 57.4324,75.5655 58.5,76.5C 56.8333,76.5 55.1667,76.5 53.5,76.5C 53.1765,69.9779 53.5098,63.6446 54.5,57.5 Z"/></g>
<g><path style="opacity:1" fill="#757663" d="M 97.5,64.5 C 100.393,70.7378 102.06,77.4045 102.5,84.5C 102.167,84.5 101.833,84.5 101.5,84.5C 100.164,77.8232 98.8303,71.1565 97.5,64.5 Z"/></g>
<g><path style="opacity:1" fill="#e23156" d="M 9.5,67.5 C 10.3037,69.1887 11.3037,70.8554 12.5,72.5C 13.1835,72.1373 13.8501,71.8039 14.5,71.5C 14.7214,74.2788 14.388,76.9455 13.5,79.5C 13.1667,79.5 12.8333,79.5 12.5,79.5C 10.9724,78.1979 9.9724,76.5313 9.5,74.5C 9.5,73.1667 9.5,71.8333 9.5,70.5C 9.5,69.5 9.5,68.5 9.5,67.5 Z"/></g>
<g><path style="opacity:1" fill="#455338" d="M 77.5,68.5 C 78.1558,69.6216 78.4892,70.9549 78.5,72.5C 78.4146,74.3328 77.7479,75.6661 76.5,76.5C 77.388,73.9455 77.7214,71.2788 77.5,68.5 Z"/></g>
<g><path style="opacity:1" fill="#334831" d="M 63.5,74.5 C 66.1445,76.2419 69.1445,76.9086 72.5,76.5C 68.8333,77.8333 65.1667,77.8333 61.5,76.5C 62.8333,76.5 63.5,75.8333 63.5,74.5 Z"/></g>
<g><path style="opacity:1" fill="#95978b" d="M 9.5,74.5 C 9.9724,76.5313 10.9724,78.1979 12.5,79.5C 10.1667,80.8333 7.83333,80.8333 5.5,79.5C 5.5,79.1667 5.5,78.8333 5.5,78.5C 6.83333,78.5 8.16667,78.5 9.5,78.5C 9.5,77.1667 9.5,75.8333 9.5,74.5 Z"/></g>
<g><path style="opacity:1" fill="#57742a" d="M 215.5,110.5 C 215.844,116.098 215.178,121.432 213.5,126.5C 210.117,105.064 201.784,85.7308 188.5,68.5C 188.667,68.1667 188.833,67.8333 189,67.5C 203.881,78.192 212.714,92.5254 215.5,110.5 Z"/></g>
<g><path style="opacity:1" fill="#373932" d="M 3.5,74.5 C 3.83333,74.5 4.16667,74.5 4.5,74.5C 4.23219,76.099 4.56552,77.4324 5.5,78.5C 5.5,78.8333 5.5,79.1667 5.5,79.5C 4.83588,81.9779 4.50255,84.6445 4.5,87.5C 6.32456,113.125 6.99123,138.792 6.5,164.5C 6.5,165.167 6.5,165.833 6.5,166.5C 6.12946,153.098 5.12946,139.764 3.5,126.5C 4.76468,125.486 5.43135,123.986 5.5,122C 5.49152,120.293 5.15818,118.793 4.5,117.5C 5.10665,115.254 5.43998,112.921 5.5,110.5C 3.92658,98.5518 3.25992,86.5518 3.5,74.5 Z"/></g>
<g><path style="opacity:1" fill="#3a482a" d="M 212.5,79.5 C 213.924,81.5145 214.59,83.8478 214.5,86.5C 213.076,84.4855 212.41,82.1522 212.5,79.5 Z"/></g>
<g><path style="opacity:1" fill="#4c110c" d="M 40.5,86.5 C 42.5,87.1667 44.5,87.8333 46.5,88.5C 42.3883,90.219 39.055,92.8856 36.5,96.5C 36.4142,95.5041 36.7476,94.6708 37.5,94C 34.2152,93.1764 30.8818,92.6764 27.5,92.5C 25.3603,92.5561 23.6936,93.2227 22.5,94.5C 21.3882,92.4006 20.7215,90.0673 20.5,87.5C 17.8127,87.6641 15.146,87.4974 12.5,87C 21.834,85.5242 31.1674,85.3575 40.5,86.5 Z"/></g>
<g><path style="opacity:1" fill="#3f2a23" d="M 40.5,86.5 C 43.5184,86.3354 46.5184,86.502 49.5,87C 47.8697,94.7436 46.8697,102.577 46.5,110.5C 46.5,103.167 46.5,95.8333 46.5,88.5C 44.5,87.8333 42.5,87.1667 40.5,86.5 Z"/></g>
<g><path style="opacity:1" fill="#6e160f" d="M 36.5,96.5 C 34.5846,100.676 32.918,105.01 31.5,109.5C 32.1869,111.177 32.8535,112.844 33.5,114.5C 27.773,109.052 24.1063,102.386 22.5,94.5C 23.6936,93.2227 25.3603,92.5561 27.5,92.5C 30.8818,92.6764 34.2152,93.1764 37.5,94C 36.7476,94.6708 36.4142,95.5041 36.5,96.5 Z"/></g>
<g><path style="opacity:1" fill="#cb6060" d="M 46.5,88.5 C 46.5,95.8333 46.5,103.167 46.5,110.5C 45.8807,117.765 42.214,119.932 35.5,117C 34.6195,116.292 33.9528,115.458 33.5,114.5C 32.8535,112.844 32.1869,111.177 31.5,109.5C 32.918,105.01 34.5846,100.676 36.5,96.5C 39.055,92.8856 42.3883,90.219 46.5,88.5 Z"/></g>
<g><path style="opacity:1" fill="#15170d" d="M 101.5,84.5 C 101.833,84.5 102.167,84.5 102.5,84.5C 101.985,89.4797 102.652,94.1464 104.5,98.5C 102.952,98.8212 102.285,99.8212 102.5,101.5C 102.5,101.833 102.5,102.167 102.5,102.5C 101.51,96.69 101.177,90.69 101.5,84.5 Z"/></g>
<g><path style="opacity:1" fill="#b0d826" d="M 104.5,98.5 C 105.833,98.8333 107.167,99.1667 108.5,99.5C 109.11,100.391 109.443,101.391 109.5,102.5C 107.236,101.781 104.903,101.448 102.5,101.5C 102.285,99.8212 102.952,98.8212 104.5,98.5 Z"/></g>
<g><path style="opacity:1" fill="#78931b" d="M 102.5,101.5 C 104.903,101.448 107.236,101.781 109.5,102.5C 109.5,102.833 109.5,103.167 109.5,103.5C 108.167,104.167 107.167,105.167 106.5,106.5C 105.391,106.443 104.391,106.11 103.5,105.5C 102.596,104.791 102.263,103.791 102.5,102.5C 102.5,102.167 102.5,101.833 102.5,101.5 Z"/></g>
<g><path style="opacity:1" fill="#54515c" d="M 108.5,99.5 C 109.586,99.62 110.253,100.287 110.5,101.5C 110.457,102.416 110.124,103.083 109.5,103.5C 109.5,103.167 109.5,102.833 109.5,102.5C 109.443,101.391 109.11,100.391 108.5,99.5 Z"/></g>
<g><path style="opacity:1" fill="#575a4e" d="M 103.5,105.5 C 104.391,106.11 105.391,106.443 106.5,106.5C 106.196,107.15 105.863,107.817 105.5,108.5C 107.12,111.404 108.453,114.404 109.5,117.5C 106.465,114.098 104.465,110.098 103.5,105.5 Z"/></g>
<g><path style="opacity:1" fill="#b1da26" d="M 98.5,117.5 C 97.5178,118.141 96.5178,118.807 95.5,119.5C 94.0603,118.048 92.3936,117.048 90.5,116.5C 90.5,115.5 90.5,114.5 90.5,113.5C 91.5585,112.4 92.3918,111.066 93,109.5C 96.5722,110.979 98.4055,113.646 98.5,117.5 Z"/></g>
<g><path style="opacity:1" fill="#212d0e" d="M 90.5,113.5 C 90.5,114.5 90.5,115.5 90.5,116.5C 90.5,118.167 90.5,119.833 90.5,121.5C 91.5,121.5 92.5,121.5 93.5,121.5C 92.4324,122.434 91.099,122.768 89.5,122.5C 89.19,119.287 89.5233,116.287 90.5,113.5 Z"/></g>
<g><path style="opacity:1" fill="#b0d0ba" d="M 128.5,117.5 C 128.449,122.187 127.449,126.521 125.5,130.5C 123.837,128.562 123.171,126.228 123.5,123.5C 122.976,119.69 124.643,117.69 128.5,117.5 Z"/></g>
<g><path style="opacity:1" fill="#97b924" d="M 4.5,117.5 C 5.15818,118.793 5.49152,120.293 5.5,122C 5.43135,123.986 4.76468,125.486 3.5,126.5C 1.56132,125.986 0.56132,124.653 0.5,122.5C 0.676168,119.775 2.0095,118.108 4.5,117.5 Z"/></g>
<g><path style="opacity:1" fill="#6d861f" d="M 90.5,116.5 C 92.3936,117.048 94.0603,118.048 95.5,119.5C 96.5178,118.807 97.5178,118.141 98.5,117.5C 97.7939,119.876 96.1273,121.21 93.5,121.5C 92.5,121.5 91.5,121.5 90.5,121.5C 90.5,119.833 90.5,118.167 90.5,116.5 Z"/></g>
<g><path style="opacity:1" fill="#41443a" d="M 128.5,117.5 C 124.643,117.69 122.976,119.69 123.5,123.5C 122.9,122.1 121.9,121.1 120.5,120.5C 122.715,117.704 125.381,116.704 128.5,117.5 Z"/></g>
<g><path style="opacity:1" fill="#858966" d="M 120.5,120.5 C 118.721,121.574 117.054,122.907 115.5,124.5C 113.872,123.465 112.205,123.465 110.5,124.5C 111.11,123.609 111.443,122.609 111.5,121.5C 112.265,121.923 113.098,122.257 114,122.5C 116.047,121.391 118.213,120.724 120.5,120.5 Z"/></g>
<g><path style="opacity:1" fill="#b2da26" d="M 79.5,130.5 C 79.6747,132.621 79.3414,134.621 78.5,136.5C 77.4036,134.897 76.0703,133.397 74.5,132C 72.256,131.95 70.5893,131.117 69.5,129.5C 73.2427,126.572 76.5761,126.905 79.5,130.5 Z"/></g>
<g><path style="opacity:1" fill="#585c58" d="M 128.5,117.5 C 129.152,118.449 129.486,119.615 129.5,121C 128.265,127.533 126.932,134.033 125.5,140.5C 125.167,140.5 124.833,140.5 124.5,140.5C 125.051,137.193 125.384,133.86 125.5,130.5C 127.449,126.521 128.449,122.187 128.5,117.5 Z"/></g>
<g><path style="opacity:1" fill="#8e946a" d="M 110.5,124.5 C 108.093,125.794 105.926,127.461 104,129.5C 102.984,128.366 102.317,128.699 102,130.5C 101.25,129.874 100.416,129.374 99.5,129C 102.971,126.928 106.638,125.428 110.5,124.5 Z"/></g>
<g><path style="opacity:1" fill="#555856" d="M 192.5,128.5 C 193.906,128.973 194.573,129.973 194.5,131.5C 193.094,131.027 192.427,130.027 192.5,128.5 Z"/></g>
<g><path style="opacity:1" fill="#b0d926" d="M 15.5,130.5 C 18.188,130.166 20.5214,130.832 22.5,132.5C 24.1348,137.426 23.1348,138.259 19.5,135C 17.4325,134.313 15.4325,134.48 13.5,135.5C 12.7025,135.043 12.3691,134.376 12.5,133.5C 13.8333,132.833 14.8333,131.833 15.5,130.5 Z"/></g>
<g><path style="opacity:1" fill="#77921e" d="M 69.5,129.5 C 70.5893,131.117 72.256,131.95 74.5,132C 76.0703,133.397 77.4036,134.897 78.5,136.5C 78.5,136.833 78.5,137.167 78.5,137.5C 77.1825,137.821 75.8492,138.154 74.5,138.5C 72.8228,137.813 71.1561,137.146 69.5,136.5C 66.9659,134.084 66.9659,131.75 69.5,129.5 Z"/></g>
<g><path style="opacity:1" fill="#38431c" d="M 79.5,130.5 C 80.1471,131.274 80.4805,132.274 80.5,133.5C 80.6598,135.355 79.9931,136.688 78.5,137.5C 78.5,137.167 78.5,136.833 78.5,136.5C 79.3414,134.621 79.6747,132.621 79.5,130.5 Z"/></g>
<g><path style="opacity:1" fill="#39481a" d="M 15.5,130.5 C 14.8333,131.833 13.8333,132.833 12.5,133.5C 12.5,131.5 13.5,130.5 15.5,130.5 Z"/></g>
<g><path style="opacity:1" fill="#6f8523" d="M 22.5,132.5 C 24.4411,134.011 24.9411,136.011 24,138.5C 23.5776,140.426 22.4109,141.426 20.5,141.5C 18.0971,141.552 15.7638,141.219 13.5,140.5C 11.466,138.345 11.1326,136.012 12.5,133.5C 12.3691,134.376 12.7025,135.043 13.5,135.5C 15.4325,134.48 17.4325,134.313 19.5,135C 23.1348,138.259 24.1348,137.426 22.5,132.5 Z"/></g>
<g><path style="opacity:1" fill="#49512c" d="M 69.5,136.5 C 71.1561,137.146 72.8228,137.813 74.5,138.5C 75.8492,138.154 77.1825,137.821 78.5,137.5C 77.6879,138.993 76.3545,139.66 74.5,139.5C 72.0582,139.714 70.3915,138.714 69.5,136.5 Z"/></g>
<g><path style="opacity:1" fill="#b2db26" d="M 51.5,139.5 C 51.6495,140.552 51.4828,141.552 51,142.5C 47.9537,141.317 45.1204,139.984 42.5,138.5C 45.737,136.985 48.737,137.319 51.5,139.5 Z"/></g>
<g><path style="opacity:1" fill="#708a1a" d="M 42.5,138.5 C 45.1204,139.984 47.9537,141.317 51,142.5C 51.4828,141.552 51.6495,140.552 51.5,139.5C 52.8333,141.833 52.8333,144.167 51.5,146.5C 49.412,147.939 47.0786,148.606 44.5,148.5C 42.9826,148.489 41.8159,147.823 41,146.5C 40.3333,144.167 40.3333,141.833 41,139.5C 41.3826,138.944 41.8826,138.611 42.5,138.5 Z"/></g>
<g><path style="opacity:1" fill="#23310f" d="M 13.5,140.5 C 15.7638,141.219 18.0971,141.552 20.5,141.5C 19.7261,142.147 18.7261,142.48 17.5,142.5C 15.6455,142.66 14.3121,141.993 13.5,140.5 Z"/></g>
<g><path style="opacity:1" fill="#747564" d="M 125.5,140.5 C 126.962,141.458 128.295,142.624 129.5,144C 135.243,144.63 140.91,145.63 146.5,147C 147.252,147.671 147.586,148.504 147.5,149.5C 143.204,147.813 138.37,146.479 133,145.5C 129.208,146.265 126.708,144.599 125.5,140.5 Z"/></g>
<g><path style="opacity:1" fill="#4f523c" d="M 124.5,140.5 C 124.174,143.311 123.341,145.978 122,148.5C 121.736,145.461 122.569,142.794 124.5,140.5 Z"/></g>
<g><path style="opacity:1" fill="#40432d" d="M 51.5,146.5 C 51.4226,147.75 50.756,148.583 49.5,149C 47.6131,149.78 45.9464,149.613 44.5,148.5C 47.0786,148.606 49.412,147.939 51.5,146.5 Z"/></g>
<g><path style="opacity:1" fill="#686c4e" d="M 120.5,149.5 C 121.097,149.735 121.43,150.235 121.5,151C 120.804,152.893 119.97,154.726 119,156.5C 118.865,154.078 119.365,151.745 120.5,149.5 Z"/></g>
<g><path style="opacity:1" fill="#7d8260" d="M 147.5,150.5 C 148.164,152.81 148.497,155.31 148.5,158C 147.912,164.182 147.245,170.349 146.5,176.5C 142.888,168.689 138.888,161.022 134.5,153.5C 139.233,152.922 143.4,154.589 147,158.5C 147.497,155.854 147.664,153.187 147.5,150.5 Z"/></g>
<g><path style="opacity:1" fill="#9ba274" d="M 108.5,160.5 C 111.247,160.187 113.914,160.52 116.5,161.5C 113.276,169.12 108.276,175.287 101.5,180C 93.343,183.772 85.5096,183.272 78,178.5C 77.3333,177.833 77.3333,177.167 78,176.5C 86.9127,168.628 97.0794,163.295 108.5,160.5 Z"/></g>
<g><path style="opacity:1" fill="#5b6649" d="M 199.5,145.5 C 200.167,151.167 200.833,156.833 201.5,162.5C 200.632,164.625 199.632,164.791 198.5,163C 199.434,157.215 199.768,151.382 199.5,145.5 Z"/></g>
<g><path style="opacity:1" fill="#84866f" d="M 6.5,164.5 C 7.63612,170.641 8.30278,176.974 8.5,183.5C 6.79487,178.097 6.12821,172.43 6.5,166.5C 6.5,165.833 6.5,165.167 6.5,164.5 Z"/></g>
<g><path style="opacity:1" fill="#9ea577" d="M 145.5,216.5 C 144.306,220.363 141.973,223.363 138.5,225.5C 135.665,223.918 132.665,222.585 129.5,221.5C 126.786,221.94 124.62,223.274 123,225.5C 120.63,222.961 118.13,220.628 115.5,218.5C 113.11,217.109 111.443,215.109 110.5,212.5C 95.5779,211.963 80.5779,210.629 65.5,208.5C 64.5836,208.543 63.9169,208.876 63.5,209.5C 62.5084,209.672 61.8417,209.338 61.5,208.5C 57.7853,206.483 53.7853,205.316 49.5,205C 51.4595,205.931 53.4595,206.764 55.5,207.5C 56.2975,207.957 56.6309,208.624 56.5,209.5C 51.8016,217.864 45.135,224.197 36.5,228.5C 35.925,226.589 34.925,224.922 33.5,223.5C 34.7666,224.087 35.7666,224.087 36.5,223.5C 27.6738,210.857 23.5072,196.857 24,181.5C 50.9819,196.192 79.8153,202.692 110.5,201C 115.167,197.667 119.833,194.333 124.5,191C 130.372,190.069 135.205,191.902 139,196.5C 142.685,202.996 144.351,209.996 144,217.5C 144.383,216.944 144.883,216.611 145.5,216.5 Z"/></g>
<g><path style="opacity:1" fill="#616158" d="M 8.5,183.5 C 9.92381,185.515 10.5905,187.848 10.5,190.5C 9.07619,188.485 8.40953,186.152 8.5,183.5 Z"/></g>
<g><path style="opacity:1" fill="#474935" d="M 27.5,187.5 C 30.6306,190.129 33.6306,192.962 36.5,196C 35.8333,196.667 35.1667,196.667 34.5,196C 31.5532,193.564 29.2199,190.731 27.5,187.5 Z"/></g>
<g><path style="opacity:1" fill="#8b8e73" d="M 146.5,177.5 C 147.776,179.562 148.61,181.896 149,184.5C 151.545,194.931 150.711,204.931 146.5,214.5C 149.137,202.174 149.137,189.84 146.5,177.5 Z"/></g>
<g><path style="opacity:1" fill="#3b3d30" d="M 61.5,208.5 C 59.7085,208.366 58.0418,208.699 56.5,209.5C 56.6309,208.624 56.2975,207.957 55.5,207.5C 53.4595,206.764 51.4595,205.931 49.5,205C 53.7853,205.316 57.7853,206.483 61.5,208.5 Z"/></g>
<g><path style="opacity:1" fill="#494c38" d="M 63.5,209.5 C 63.9169,208.876 64.5836,208.543 65.5,208.5C 80.5779,210.629 95.5779,211.963 110.5,212.5C 107.15,212.335 103.817,212.502 100.5,213C 99.3365,215.328 97.6698,217.162 95.5,218.5C 95.8588,216.629 96.8588,215.129 98.5,214C 97.5,213.667 96.5,213.333 95.5,213C 86.6099,212.726 77.7766,211.892 69,210.5C 67.9302,210.528 67.0968,210.861 66.5,211.5C 65.7777,210.449 64.7777,209.782 63.5,209.5 Z"/></g>
<g><path style="opacity:1" fill="#515050" d="M 17.5,208.5 C 18.9063,208.973 19.573,209.973 19.5,211.5C 18.0937,211.027 17.427,210.027 17.5,208.5 Z"/></g>
<g><path style="opacity:1" fill="#9caa7b" d="M 95.5,218.5 C 93.7128,222.625 90.7128,225.292 86.5,226.5C 84.4727,226.662 82.4727,226.495 80.5,226C 77.1643,222.674 73.4977,219.841 69.5,217.5C 67.9925,215.819 66.9925,213.819 66.5,211.5C 67.0968,210.861 67.9302,210.528 69,210.5C 77.7766,211.892 86.6099,212.726 95.5,213C 96.5,213.333 97.5,213.667 98.5,214C 96.8588,215.129 95.8588,216.629 95.5,218.5 Z"/></g>
<g><path style="opacity:1" fill="#636a62" d="M 24.5,219.5 C 26.9872,220.323 29.3206,221.323 31.5,222.5C 27.731,221.96 25.0643,223.294 23.5,226.5C 23.9926,224.194 24.3259,221.861 24.5,219.5 Z"/></g>
<g><path style="opacity:1" fill="#6b7c70" d="M 69.5,217.5 C 73.4977,219.841 77.1643,222.674 80.5,226C 82.4727,226.495 84.4727,226.662 86.5,226.5C 80.7326,228.22 74.7326,228.72 68.5,228C 65.8184,225.683 65.985,223.516 69,221.5C 69.49,220.207 69.6567,218.873 69.5,217.5 Z"/></g>
<g><path style="opacity:1" fill="#b8dac5" d="M 31.5,222.5 C 32.4916,222.328 33.1583,222.662 33.5,223.5C 34.925,224.922 35.925,226.589 36.5,228.5C 32.2961,229.91 27.9628,230.577 23.5,230.5C 22.6236,230.631 21.9569,230.298 21.5,229.5C 21.9424,228.261 22.6091,227.261 23.5,226.5C 25.0643,223.294 27.731,221.96 31.5,222.5 Z"/></g>
<g><path style="opacity:1" fill="#66766a" d="M 115.5,218.5 C 118.13,220.628 120.63,222.961 123,225.5C 124.62,223.274 126.786,221.94 129.5,221.5C 132.665,222.585 135.665,223.918 138.5,225.5C 135.759,229.202 132.093,230.702 127.5,230C 122.317,227.316 118.317,223.482 115.5,218.5 Z"/></g>
<g><path style="opacity:1" fill="#626565" d="M 36.5,228.5 C 34.9275,229.687 33.2608,230.687 31.5,231.5C 28.8333,231.5 26.1667,231.5 23.5,231.5C 23.5,231.167 23.5,230.833 23.5,230.5C 27.9628,230.577 32.2961,229.91 36.5,228.5 Z"/></g>
</svg>
